G04 EAGLE Gerber RS-274X export*
G75*
%MOMM*%
%FSLAX34Y34*%
%LPD*%
%IN*%
%IPPOS*%
%AMOC8*
5,1,8,0,0,1.08239X$1,22.5*%
G01*
%ADD10C,0.254000*%


D10*
X140970Y447040D02*
X141125Y443498D01*
X141587Y439983D01*
X142355Y436522D01*
X143421Y433140D01*
X144778Y429865D01*
X146415Y426720D01*
X148320Y423730D01*
X150478Y420917D01*
X152873Y418303D01*
X155487Y415908D01*
X158300Y413750D01*
X161290Y411845D01*
X164435Y410208D01*
X167710Y408851D01*
X171092Y407785D01*
X174553Y407017D01*
X178068Y406555D01*
X181610Y406400D01*
X698500Y406400D01*
X702042Y406555D01*
X705557Y407017D01*
X709018Y407785D01*
X712400Y408851D01*
X715675Y410208D01*
X718820Y411845D01*
X721810Y413750D01*
X724623Y415908D01*
X727237Y418303D01*
X729632Y420917D01*
X731790Y423730D01*
X733695Y426720D01*
X735332Y429865D01*
X736689Y433140D01*
X737755Y436522D01*
X738523Y439983D01*
X738985Y443498D01*
X739140Y447040D01*
X739140Y721360D01*
X738985Y724902D01*
X738523Y728417D01*
X737755Y731878D01*
X736689Y735260D01*
X735332Y738535D01*
X733695Y741680D01*
X731790Y744670D01*
X729632Y747483D01*
X727237Y750097D01*
X724623Y752492D01*
X721810Y754650D01*
X718820Y756555D01*
X715675Y758192D01*
X712400Y759549D01*
X709018Y760615D01*
X705557Y761383D01*
X702042Y761845D01*
X698500Y762000D01*
X181610Y762000D01*
X178068Y761845D01*
X174553Y761383D01*
X171092Y760615D01*
X167710Y759549D01*
X164435Y758192D01*
X161290Y756555D01*
X158300Y754650D01*
X155487Y752492D01*
X152873Y750097D01*
X150478Y747483D01*
X148320Y744670D01*
X146415Y741680D01*
X144778Y738535D01*
X143421Y735260D01*
X142355Y731878D01*
X141587Y728417D01*
X141125Y724902D01*
X140970Y721360D01*
X140970Y447040D01*
X151750Y493960D02*
X151761Y493699D01*
X151796Y493439D01*
X151852Y493184D01*
X151931Y492934D01*
X152031Y492692D01*
X152152Y492460D01*
X152293Y492239D01*
X152452Y492032D01*
X152629Y491839D01*
X152822Y491662D01*
X153029Y491503D01*
X153250Y491362D01*
X153482Y491241D01*
X153724Y491141D01*
X153974Y491062D01*
X154229Y491006D01*
X154489Y490971D01*
X154750Y490960D01*
X162750Y490960D01*
X163011Y490971D01*
X163271Y491006D01*
X163526Y491062D01*
X163776Y491141D01*
X164018Y491241D01*
X164250Y491362D01*
X164471Y491503D01*
X164678Y491662D01*
X164871Y491839D01*
X165048Y492032D01*
X165207Y492239D01*
X165348Y492460D01*
X165469Y492692D01*
X165569Y492934D01*
X165648Y493184D01*
X165704Y493439D01*
X165739Y493699D01*
X165750Y493960D01*
X165739Y494221D01*
X165704Y494481D01*
X165648Y494736D01*
X165569Y494986D01*
X165469Y495228D01*
X165348Y495460D01*
X165207Y495681D01*
X165048Y495888D01*
X164871Y496081D01*
X164678Y496258D01*
X164471Y496417D01*
X164250Y496558D01*
X164018Y496679D01*
X163776Y496779D01*
X163526Y496858D01*
X163271Y496914D01*
X163011Y496949D01*
X162750Y496960D01*
X154750Y496960D01*
X154489Y496949D01*
X154229Y496914D01*
X153974Y496858D01*
X153724Y496779D01*
X153482Y496679D01*
X153250Y496558D01*
X153029Y496417D01*
X152822Y496258D01*
X152629Y496081D01*
X152452Y495888D01*
X152293Y495681D01*
X152152Y495460D01*
X152031Y495228D01*
X151931Y494986D01*
X151852Y494736D01*
X151796Y494481D01*
X151761Y494221D01*
X151750Y493960D01*
X151750Y580460D02*
X151761Y580199D01*
X151796Y579939D01*
X151852Y579684D01*
X151931Y579434D01*
X152031Y579192D01*
X152152Y578960D01*
X152293Y578739D01*
X152452Y578532D01*
X152629Y578339D01*
X152822Y578162D01*
X153029Y578003D01*
X153250Y577862D01*
X153482Y577741D01*
X153724Y577641D01*
X153974Y577562D01*
X154229Y577506D01*
X154489Y577471D01*
X154750Y577460D01*
X162750Y577460D01*
X163011Y577471D01*
X163271Y577506D01*
X163526Y577562D01*
X163776Y577641D01*
X164018Y577741D01*
X164250Y577862D01*
X164471Y578003D01*
X164678Y578162D01*
X164871Y578339D01*
X165048Y578532D01*
X165207Y578739D01*
X165348Y578960D01*
X165469Y579192D01*
X165569Y579434D01*
X165648Y579684D01*
X165704Y579939D01*
X165739Y580199D01*
X165750Y580460D01*
X165739Y580721D01*
X165704Y580981D01*
X165648Y581236D01*
X165569Y581486D01*
X165469Y581728D01*
X165348Y581960D01*
X165207Y582181D01*
X165048Y582388D01*
X164871Y582581D01*
X164678Y582758D01*
X164471Y582917D01*
X164250Y583058D01*
X164018Y583179D01*
X163776Y583279D01*
X163526Y583358D01*
X163271Y583414D01*
X163011Y583449D01*
X162750Y583460D01*
X154750Y583460D01*
X154489Y583449D01*
X154229Y583414D01*
X153974Y583358D01*
X153724Y583279D01*
X153482Y583179D01*
X153250Y583058D01*
X153029Y582917D01*
X152822Y582758D01*
X152629Y582581D01*
X152452Y582388D01*
X152293Y582181D01*
X152152Y581960D01*
X152031Y581728D01*
X151931Y581486D01*
X151852Y581236D01*
X151796Y580981D01*
X151761Y580721D01*
X151750Y580460D01*
X191950Y493960D02*
X191961Y493699D01*
X191996Y493439D01*
X192052Y493184D01*
X192131Y492934D01*
X192231Y492692D01*
X192352Y492460D01*
X192493Y492239D01*
X192652Y492032D01*
X192829Y491839D01*
X193022Y491662D01*
X193229Y491503D01*
X193450Y491362D01*
X193682Y491241D01*
X193924Y491141D01*
X194174Y491062D01*
X194429Y491006D01*
X194689Y490971D01*
X194950Y490960D01*
X205950Y490960D01*
X206211Y490971D01*
X206471Y491006D01*
X206726Y491062D01*
X206976Y491141D01*
X207218Y491241D01*
X207450Y491362D01*
X207671Y491503D01*
X207878Y491662D01*
X208071Y491839D01*
X208248Y492032D01*
X208407Y492239D01*
X208548Y492460D01*
X208669Y492692D01*
X208769Y492934D01*
X208848Y493184D01*
X208904Y493439D01*
X208939Y493699D01*
X208950Y493960D01*
X208939Y494221D01*
X208904Y494481D01*
X208848Y494736D01*
X208769Y494986D01*
X208669Y495228D01*
X208548Y495460D01*
X208407Y495681D01*
X208248Y495888D01*
X208071Y496081D01*
X207878Y496258D01*
X207671Y496417D01*
X207450Y496558D01*
X207218Y496679D01*
X206976Y496779D01*
X206726Y496858D01*
X206471Y496914D01*
X206211Y496949D01*
X205950Y496960D01*
X194950Y496960D01*
X194689Y496949D01*
X194429Y496914D01*
X194174Y496858D01*
X193924Y496779D01*
X193682Y496679D01*
X193450Y496558D01*
X193229Y496417D01*
X193022Y496258D01*
X192829Y496081D01*
X192652Y495888D01*
X192493Y495681D01*
X192352Y495460D01*
X192231Y495228D01*
X192131Y494986D01*
X192052Y494736D01*
X191996Y494481D01*
X191961Y494221D01*
X191950Y493960D01*
X191950Y580460D02*
X191961Y580199D01*
X191996Y579939D01*
X192052Y579684D01*
X192131Y579434D01*
X192231Y579192D01*
X192352Y578960D01*
X192493Y578739D01*
X192652Y578532D01*
X192829Y578339D01*
X193022Y578162D01*
X193229Y578003D01*
X193450Y577862D01*
X193682Y577741D01*
X193924Y577641D01*
X194174Y577562D01*
X194429Y577506D01*
X194689Y577471D01*
X194950Y577460D01*
X205950Y577460D01*
X206211Y577471D01*
X206471Y577506D01*
X206726Y577562D01*
X206976Y577641D01*
X207218Y577741D01*
X207450Y577862D01*
X207671Y578003D01*
X207878Y578162D01*
X208071Y578339D01*
X208248Y578532D01*
X208407Y578739D01*
X208548Y578960D01*
X208669Y579192D01*
X208769Y579434D01*
X208848Y579684D01*
X208904Y579939D01*
X208939Y580199D01*
X208950Y580460D01*
X208939Y580721D01*
X208904Y580981D01*
X208848Y581236D01*
X208769Y581486D01*
X208669Y581728D01*
X208548Y581960D01*
X208407Y582181D01*
X208248Y582388D01*
X208071Y582581D01*
X207878Y582758D01*
X207671Y582917D01*
X207450Y583058D01*
X207218Y583179D01*
X206976Y583279D01*
X206726Y583358D01*
X206471Y583414D01*
X206211Y583449D01*
X205950Y583460D01*
X194950Y583460D01*
X194689Y583449D01*
X194429Y583414D01*
X194174Y583358D01*
X193924Y583279D01*
X193682Y583179D01*
X193450Y583058D01*
X193229Y582917D01*
X193022Y582758D01*
X192829Y582581D01*
X192652Y582388D01*
X192493Y582181D01*
X192352Y581960D01*
X192231Y581728D01*
X192131Y581486D01*
X192052Y581236D01*
X191996Y580981D01*
X191961Y580721D01*
X191950Y580460D01*
X152119Y666540D02*
X151561Y666603D01*
X151014Y666728D01*
X150484Y666913D01*
X149978Y667157D01*
X149502Y667456D01*
X149063Y667806D01*
X148666Y668203D01*
X148316Y668642D01*
X148017Y669118D01*
X147773Y669624D01*
X147588Y670154D01*
X147463Y670701D01*
X147400Y671259D01*
X147400Y671821D01*
X147463Y672379D01*
X147588Y672926D01*
X147773Y673456D01*
X148017Y673962D01*
X148316Y674438D01*
X148666Y674877D01*
X149063Y675274D01*
X149502Y675624D01*
X149978Y675923D01*
X150484Y676167D01*
X151014Y676352D01*
X151561Y676477D01*
X152119Y676540D01*
X152681Y676540D01*
X153239Y676477D01*
X153786Y676352D01*
X154316Y676167D01*
X154822Y675923D01*
X155298Y675624D01*
X155737Y675274D01*
X156134Y674877D01*
X156484Y674438D01*
X156783Y673962D01*
X157027Y673456D01*
X157212Y672926D01*
X157337Y672379D01*
X157400Y671821D01*
X157400Y671259D01*
X157337Y670701D01*
X157212Y670154D01*
X157027Y669624D01*
X156783Y669118D01*
X156484Y668642D01*
X156134Y668203D01*
X155737Y667806D01*
X155298Y667456D01*
X154822Y667157D01*
X154316Y666913D01*
X153786Y666728D01*
X153239Y666603D01*
X152681Y666540D01*
X152119Y666540D01*
X152119Y598540D02*
X151561Y598603D01*
X151014Y598728D01*
X150484Y598913D01*
X149978Y599157D01*
X149502Y599456D01*
X149063Y599806D01*
X148666Y600203D01*
X148316Y600642D01*
X148017Y601118D01*
X147773Y601624D01*
X147588Y602154D01*
X147463Y602701D01*
X147400Y603259D01*
X147400Y603821D01*
X147463Y604379D01*
X147588Y604926D01*
X147773Y605456D01*
X148017Y605962D01*
X148316Y606438D01*
X148666Y606877D01*
X149063Y607274D01*
X149502Y607624D01*
X149978Y607923D01*
X150484Y608167D01*
X151014Y608352D01*
X151561Y608477D01*
X152119Y608540D01*
X152681Y608540D01*
X153239Y608477D01*
X153786Y608352D01*
X154316Y608167D01*
X154822Y607923D01*
X155298Y607624D01*
X155737Y607274D01*
X156134Y606877D01*
X156484Y606438D01*
X156783Y605962D01*
X157027Y605456D01*
X157212Y604926D01*
X157337Y604379D01*
X157400Y603821D01*
X157400Y603259D01*
X157337Y602701D01*
X157212Y602154D01*
X157027Y601624D01*
X156783Y601118D01*
X156484Y600642D01*
X156134Y600203D01*
X155737Y599806D01*
X155298Y599456D01*
X154822Y599157D01*
X154316Y598913D01*
X153786Y598728D01*
X153239Y598603D01*
X152681Y598540D01*
X152119Y598540D01*
X195314Y563110D02*
X194848Y563184D01*
X194398Y563330D01*
X193978Y563544D01*
X193596Y563822D01*
X193262Y564156D01*
X192984Y564538D01*
X192770Y564958D01*
X192624Y565408D01*
X192550Y565874D01*
X192550Y566346D01*
X192624Y566813D01*
X192770Y567262D01*
X192984Y567682D01*
X193262Y568064D01*
X193596Y568398D01*
X193978Y568676D01*
X194398Y568890D01*
X194848Y569036D01*
X195314Y569110D01*
X195786Y569110D01*
X196253Y569036D01*
X196702Y568890D01*
X197122Y568676D01*
X197504Y568398D01*
X197838Y568064D01*
X198116Y567682D01*
X198330Y567262D01*
X198476Y566813D01*
X198550Y566346D01*
X198550Y565874D01*
X198476Y565408D01*
X198330Y564958D01*
X198116Y564538D01*
X197838Y564156D01*
X197504Y563822D01*
X197122Y563544D01*
X196702Y563330D01*
X196253Y563184D01*
X195786Y563110D01*
X195314Y563110D01*
X195314Y505310D02*
X194848Y505384D01*
X194398Y505530D01*
X193978Y505744D01*
X193596Y506022D01*
X193262Y506356D01*
X192984Y506738D01*
X192770Y507158D01*
X192624Y507608D01*
X192550Y508074D01*
X192550Y508546D01*
X192624Y509013D01*
X192770Y509462D01*
X192984Y509882D01*
X193262Y510264D01*
X193596Y510598D01*
X193978Y510876D01*
X194398Y511090D01*
X194848Y511236D01*
X195314Y511310D01*
X195786Y511310D01*
X196253Y511236D01*
X196702Y511090D01*
X197122Y510876D01*
X197504Y510598D01*
X197838Y510264D01*
X198116Y509882D01*
X198330Y509462D01*
X198476Y509013D01*
X198550Y508546D01*
X198550Y508074D01*
X198476Y507608D01*
X198330Y507158D01*
X198116Y506738D01*
X197838Y506356D01*
X197504Y506022D01*
X197122Y505744D01*
X196702Y505530D01*
X196253Y505384D01*
X195786Y505310D01*
X195314Y505310D01*
M02*
