G04 EAGLE Gerber RS-274X export*
G75*
%MOMM*%
%FSLAX34Y34*%
%LPD*%
%INSoldermask Top*%
%IPPOS*%
%AMOC8*
5,1,8,0,0,1.08239X$1,22.5*%
G01*
%ADD10C,0.261663*%
%ADD11R,1.143200X1.003200*%
%ADD12R,1.153200X1.103200*%
%ADD13R,1.303200X2.103200*%
%ADD14R,1.003200X1.143200*%
%ADD15R,0.703200X0.553200*%
%ADD16R,1.103200X1.153200*%
%ADD17R,1.103200X1.203200*%
%ADD18R,1.303200X1.203200*%
%ADD19R,1.103200X2.203200*%
%ADD20R,2.203200X1.103200*%
%ADD21R,1.533200X1.533200*%
%ADD22C,0.911200*%
%ADD23R,1.103200X0.853200*%
%ADD24R,1.603200X1.103200*%
%ADD25R,1.003200X1.103200*%
%ADD26R,0.638200X1.729200*%
%ADD27R,2.703200X1.403200*%
%ADD28C,1.203200*%
%ADD29R,0.753200X1.403200*%
%ADD30C,0.301600*%
%ADD31C,0.353406*%
%ADD32R,2.616200X3.505200*%
%ADD33R,1.240000X0.400000*%
%ADD34R,1.240000X0.700000*%
%ADD35C,0.803200*%
%ADD36R,0.933200X1.413200*%
%ADD37R,0.762000X1.524000*%
%ADD38R,0.711200X1.524000*%
%ADD39C,1.727200*%
%ADD40R,0.853200X1.103200*%
%ADD41C,6.203200*%
%ADD42R,1.203200X1.103200*%
%ADD43C,1.219200*%
%ADD44R,0.753200X1.253200*%
%ADD45R,1.653200X1.403200*%

G36*
X205953Y488913D02*
X205953Y488913D01*
X205956Y488911D01*
X207068Y489036D01*
X207074Y489042D01*
X207079Y489039D01*
X208136Y489409D01*
X208140Y489416D01*
X208146Y489413D01*
X209094Y490009D01*
X209097Y490017D01*
X209102Y490016D01*
X209894Y490808D01*
X209895Y490816D01*
X209901Y490816D01*
X210497Y491764D01*
X210496Y491773D01*
X210501Y491774D01*
X210871Y492831D01*
X210870Y492835D01*
X210872Y492837D01*
X210870Y492840D01*
X210874Y492842D01*
X210999Y493955D01*
X210995Y493961D01*
X210999Y493965D01*
X210886Y495068D01*
X210880Y495074D01*
X210884Y495079D01*
X210528Y496128D01*
X210521Y496133D01*
X210523Y496138D01*
X209943Y497083D01*
X209936Y497086D01*
X209936Y497092D01*
X209161Y497883D01*
X209152Y497885D01*
X209152Y497890D01*
X208219Y498490D01*
X208211Y498489D01*
X208210Y498494D01*
X207167Y498871D01*
X207159Y498869D01*
X207156Y498874D01*
X206056Y499009D01*
X206053Y499007D01*
X206052Y499007D01*
X206050Y499009D01*
X195050Y499009D01*
X195047Y499007D01*
X195045Y499009D01*
X193920Y498894D01*
X193914Y498888D01*
X193909Y498891D01*
X192838Y498528D01*
X192834Y498521D01*
X192828Y498524D01*
X191865Y497931D01*
X191862Y497924D01*
X191856Y497925D01*
X191048Y497133D01*
X191047Y497125D01*
X191042Y497124D01*
X190430Y496173D01*
X190431Y496167D01*
X190427Y496164D01*
X190427Y496163D01*
X190426Y496163D01*
X190041Y495099D01*
X190044Y495091D01*
X190039Y495088D01*
X189901Y493966D01*
X189905Y493959D01*
X189901Y493955D01*
X190026Y492842D01*
X190032Y492836D01*
X190029Y492831D01*
X190399Y491774D01*
X190406Y491770D01*
X190403Y491764D01*
X190999Y490816D01*
X191007Y490813D01*
X191006Y490808D01*
X191798Y490016D01*
X191806Y490015D01*
X191806Y490009D01*
X192754Y489413D01*
X192763Y489414D01*
X192764Y489409D01*
X193821Y489039D01*
X193829Y489041D01*
X193832Y489036D01*
X194945Y488911D01*
X194948Y488913D01*
X194950Y488911D01*
X205950Y488911D01*
X205953Y488913D01*
G37*
G36*
X205953Y575413D02*
X205953Y575413D01*
X205956Y575411D01*
X207068Y575536D01*
X207074Y575542D01*
X207079Y575539D01*
X208136Y575909D01*
X208140Y575916D01*
X208146Y575913D01*
X209094Y576509D01*
X209097Y576517D01*
X209102Y576516D01*
X209894Y577308D01*
X209895Y577316D01*
X209901Y577316D01*
X210497Y578264D01*
X210496Y578273D01*
X210501Y578274D01*
X210871Y579331D01*
X210870Y579335D01*
X210872Y579337D01*
X210870Y579340D01*
X210874Y579342D01*
X210999Y580455D01*
X210995Y580462D01*
X210999Y580466D01*
X210874Y581578D01*
X210868Y581584D01*
X210871Y581589D01*
X210501Y582646D01*
X210495Y582650D01*
X210497Y582656D01*
X209901Y583604D01*
X209893Y583607D01*
X209894Y583612D01*
X209102Y584404D01*
X209094Y584405D01*
X209094Y584411D01*
X208146Y585007D01*
X208137Y585006D01*
X208136Y585011D01*
X207079Y585381D01*
X207071Y585379D01*
X207068Y585384D01*
X205956Y585509D01*
X205952Y585507D01*
X205950Y585509D01*
X194950Y585509D01*
X194947Y585507D01*
X194946Y585507D01*
X194945Y585509D01*
X193832Y585384D01*
X193826Y585378D01*
X193821Y585381D01*
X192764Y585011D01*
X192760Y585005D01*
X192754Y585007D01*
X191806Y584411D01*
X191803Y584403D01*
X191798Y584404D01*
X191006Y583612D01*
X191005Y583604D01*
X190999Y583604D01*
X190403Y582656D01*
X190404Y582647D01*
X190399Y582646D01*
X190029Y581589D01*
X190031Y581583D01*
X190027Y581580D01*
X190028Y581579D01*
X190026Y581578D01*
X189901Y580466D01*
X189905Y580458D01*
X189901Y580455D01*
X190026Y579342D01*
X190032Y579336D01*
X190029Y579331D01*
X190399Y578274D01*
X190406Y578270D01*
X190403Y578264D01*
X190999Y577316D01*
X191007Y577313D01*
X191006Y577308D01*
X191798Y576516D01*
X191806Y576515D01*
X191806Y576509D01*
X192754Y575913D01*
X192763Y575914D01*
X192764Y575909D01*
X193821Y575539D01*
X193829Y575541D01*
X193832Y575536D01*
X194945Y575411D01*
X194948Y575413D01*
X194950Y575411D01*
X205950Y575411D01*
X205953Y575413D01*
G37*
G36*
X162753Y575413D02*
X162753Y575413D01*
X162756Y575411D01*
X163868Y575536D01*
X163874Y575542D01*
X163879Y575539D01*
X164936Y575909D01*
X164940Y575916D01*
X164946Y575913D01*
X165894Y576509D01*
X165897Y576517D01*
X165902Y576516D01*
X166694Y577308D01*
X166695Y577316D01*
X166701Y577316D01*
X167297Y578264D01*
X167296Y578273D01*
X167301Y578274D01*
X167671Y579331D01*
X167670Y579335D01*
X167672Y579337D01*
X167670Y579340D01*
X167674Y579342D01*
X167799Y580455D01*
X167795Y580462D01*
X167799Y580466D01*
X167674Y581578D01*
X167668Y581584D01*
X167671Y581589D01*
X167301Y582646D01*
X167295Y582650D01*
X167297Y582656D01*
X166701Y583604D01*
X166693Y583607D01*
X166694Y583612D01*
X165902Y584404D01*
X165894Y584405D01*
X165894Y584411D01*
X164946Y585007D01*
X164937Y585006D01*
X164936Y585011D01*
X163879Y585381D01*
X163871Y585379D01*
X163868Y585384D01*
X162756Y585509D01*
X162752Y585507D01*
X162750Y585509D01*
X154750Y585509D01*
X154747Y585507D01*
X154746Y585507D01*
X154745Y585509D01*
X153632Y585384D01*
X153626Y585378D01*
X153621Y585381D01*
X152564Y585011D01*
X152560Y585005D01*
X152554Y585007D01*
X151606Y584411D01*
X151603Y584403D01*
X151598Y584404D01*
X150806Y583612D01*
X150805Y583604D01*
X150799Y583604D01*
X150203Y582656D01*
X150204Y582647D01*
X150199Y582646D01*
X149829Y581589D01*
X149831Y581583D01*
X149827Y581580D01*
X149828Y581579D01*
X149826Y581578D01*
X149701Y580466D01*
X149705Y580458D01*
X149701Y580455D01*
X149826Y579342D01*
X149832Y579336D01*
X149829Y579331D01*
X150199Y578274D01*
X150206Y578270D01*
X150203Y578264D01*
X150799Y577316D01*
X150807Y577313D01*
X150806Y577308D01*
X151598Y576516D01*
X151606Y576515D01*
X151606Y576509D01*
X152554Y575913D01*
X152563Y575914D01*
X152564Y575909D01*
X153621Y575539D01*
X153629Y575541D01*
X153632Y575536D01*
X154745Y575411D01*
X154748Y575413D01*
X154750Y575411D01*
X162750Y575411D01*
X162753Y575413D01*
G37*
G36*
X162753Y488913D02*
X162753Y488913D01*
X162756Y488911D01*
X163868Y489036D01*
X163874Y489042D01*
X163879Y489039D01*
X164936Y489409D01*
X164940Y489416D01*
X164946Y489413D01*
X165894Y490009D01*
X165897Y490017D01*
X165902Y490016D01*
X166694Y490808D01*
X166695Y490816D01*
X166701Y490816D01*
X167297Y491764D01*
X167296Y491773D01*
X167301Y491774D01*
X167671Y492831D01*
X167670Y492835D01*
X167672Y492837D01*
X167670Y492840D01*
X167674Y492842D01*
X167799Y493955D01*
X167795Y493962D01*
X167799Y493966D01*
X167674Y495078D01*
X167668Y495084D01*
X167671Y495089D01*
X167301Y496146D01*
X167295Y496150D01*
X167297Y496156D01*
X166701Y497104D01*
X166693Y497107D01*
X166694Y497112D01*
X165902Y497904D01*
X165894Y497905D01*
X165894Y497911D01*
X164946Y498507D01*
X164937Y498506D01*
X164936Y498511D01*
X163879Y498881D01*
X163871Y498879D01*
X163868Y498884D01*
X162756Y499009D01*
X162752Y499007D01*
X162750Y499009D01*
X154750Y499009D01*
X154747Y499007D01*
X154746Y499007D01*
X154745Y499009D01*
X153632Y498884D01*
X153626Y498878D01*
X153621Y498881D01*
X152564Y498511D01*
X152560Y498505D01*
X152554Y498507D01*
X151606Y497911D01*
X151603Y497903D01*
X151598Y497904D01*
X150806Y497112D01*
X150805Y497104D01*
X150799Y497104D01*
X150203Y496156D01*
X150204Y496147D01*
X150199Y496146D01*
X149829Y495089D01*
X149831Y495083D01*
X149827Y495080D01*
X149828Y495079D01*
X149826Y495078D01*
X149701Y493966D01*
X149705Y493958D01*
X149701Y493955D01*
X149826Y492842D01*
X149832Y492836D01*
X149829Y492831D01*
X150199Y491774D01*
X150206Y491770D01*
X150203Y491764D01*
X150799Y490816D01*
X150807Y490813D01*
X150806Y490808D01*
X151598Y490016D01*
X151606Y490015D01*
X151606Y490009D01*
X152554Y489413D01*
X152563Y489414D01*
X152564Y489409D01*
X153621Y489039D01*
X153629Y489041D01*
X153632Y489036D01*
X154745Y488911D01*
X154748Y488913D01*
X154750Y488911D01*
X162750Y488911D01*
X162753Y488913D01*
G37*
D10*
X366608Y597592D02*
X364192Y597592D01*
X364192Y602008D01*
X366608Y602008D01*
X366608Y597592D01*
X366608Y600078D02*
X364192Y600078D01*
X367608Y592908D02*
X367608Y590492D01*
X363192Y590492D01*
X363192Y592908D01*
X367608Y592908D01*
X367608Y587908D02*
X367608Y585492D01*
X363192Y585492D01*
X363192Y587908D01*
X367608Y587908D01*
X367608Y582908D02*
X367608Y580492D01*
X363192Y580492D01*
X363192Y582908D01*
X367608Y582908D01*
X367608Y577908D02*
X367608Y575492D01*
X363192Y575492D01*
X363192Y577908D01*
X367608Y577908D01*
X366608Y566392D02*
X364192Y566392D01*
X364192Y570808D01*
X366608Y570808D01*
X366608Y566392D01*
X366608Y568878D02*
X364192Y568878D01*
X361608Y566392D02*
X359192Y566392D01*
X359192Y570808D01*
X361608Y570808D01*
X361608Y566392D01*
X361608Y568878D02*
X359192Y568878D01*
X356608Y566392D02*
X354192Y566392D01*
X354192Y570808D01*
X356608Y570808D01*
X356608Y566392D01*
X356608Y568878D02*
X354192Y568878D01*
X351608Y566392D02*
X349192Y566392D01*
X349192Y570808D01*
X351608Y570808D01*
X351608Y566392D01*
X351608Y568878D02*
X349192Y568878D01*
X346608Y566392D02*
X344192Y566392D01*
X344192Y570808D01*
X346608Y570808D01*
X346608Y566392D01*
X346608Y568878D02*
X344192Y568878D01*
X341608Y566392D02*
X339192Y566392D01*
X339192Y570808D01*
X341608Y570808D01*
X341608Y566392D01*
X341608Y568878D02*
X339192Y568878D01*
X336608Y566392D02*
X334192Y566392D01*
X334192Y570808D01*
X336608Y570808D01*
X336608Y566392D01*
X336608Y568878D02*
X334192Y568878D01*
X331608Y566392D02*
X329192Y566392D01*
X329192Y570808D01*
X331608Y570808D01*
X331608Y566392D01*
X331608Y568878D02*
X329192Y568878D01*
X326608Y566392D02*
X324192Y566392D01*
X324192Y570808D01*
X326608Y570808D01*
X326608Y566392D01*
X326608Y568878D02*
X324192Y568878D01*
X321608Y566392D02*
X319192Y566392D01*
X319192Y570808D01*
X321608Y570808D01*
X321608Y566392D01*
X321608Y568878D02*
X319192Y568878D01*
X322608Y575492D02*
X322608Y577908D01*
X322608Y575492D02*
X318192Y575492D01*
X318192Y577908D01*
X322608Y577908D01*
X322608Y580492D02*
X322608Y582908D01*
X322608Y580492D02*
X318192Y580492D01*
X318192Y582908D01*
X322608Y582908D01*
X322608Y585492D02*
X322608Y587908D01*
X322608Y585492D02*
X318192Y585492D01*
X318192Y587908D01*
X322608Y587908D01*
X322608Y590492D02*
X322608Y592908D01*
X322608Y590492D02*
X318192Y590492D01*
X318192Y592908D01*
X322608Y592908D01*
X321608Y597592D02*
X319192Y597592D01*
X319192Y602008D01*
X321608Y602008D01*
X321608Y597592D01*
X321608Y600078D02*
X319192Y600078D01*
X324192Y597592D02*
X326608Y597592D01*
X324192Y597592D02*
X324192Y602008D01*
X326608Y602008D01*
X326608Y597592D01*
X326608Y600078D02*
X324192Y600078D01*
X329192Y597592D02*
X331608Y597592D01*
X329192Y597592D02*
X329192Y602008D01*
X331608Y602008D01*
X331608Y597592D01*
X331608Y600078D02*
X329192Y600078D01*
X334192Y597592D02*
X336608Y597592D01*
X334192Y597592D02*
X334192Y602008D01*
X336608Y602008D01*
X336608Y597592D01*
X336608Y600078D02*
X334192Y600078D01*
X339192Y597592D02*
X341608Y597592D01*
X339192Y597592D02*
X339192Y602008D01*
X341608Y602008D01*
X341608Y597592D01*
X341608Y600078D02*
X339192Y600078D01*
X344192Y597592D02*
X346608Y597592D01*
X344192Y597592D02*
X344192Y602008D01*
X346608Y602008D01*
X346608Y597592D01*
X346608Y600078D02*
X344192Y600078D01*
X349192Y597592D02*
X351608Y597592D01*
X349192Y597592D02*
X349192Y602008D01*
X351608Y602008D01*
X351608Y597592D01*
X351608Y600078D02*
X349192Y600078D01*
X354192Y597592D02*
X356608Y597592D01*
X354192Y597592D02*
X354192Y602008D01*
X356608Y602008D01*
X356608Y597592D01*
X356608Y600078D02*
X354192Y600078D01*
X359192Y597592D02*
X361608Y597592D01*
X359192Y597592D02*
X359192Y602008D01*
X361608Y602008D01*
X361608Y597592D01*
X361608Y600078D02*
X359192Y600078D01*
D11*
X281940Y527970D03*
X281940Y541370D03*
X387350Y529940D03*
X387350Y516540D03*
D12*
X293370Y526670D03*
X293370Y542670D03*
X306070Y526670D03*
X306070Y542670D03*
X400050Y529970D03*
X400050Y513970D03*
D13*
X260150Y537210D03*
X235150Y537210D03*
D14*
X256190Y519430D03*
X269590Y519430D03*
X245460Y519430D03*
X232060Y519430D03*
D15*
X527430Y733650D03*
X527430Y727150D03*
X527430Y720650D03*
X527430Y714150D03*
X511430Y714150D03*
X511430Y720650D03*
X511430Y727150D03*
X511430Y733650D03*
D12*
X562610Y734440D03*
X562610Y718440D03*
D16*
X455550Y683260D03*
X471550Y683260D03*
D14*
X458120Y712470D03*
X471520Y712470D03*
X458120Y698500D03*
X471520Y698500D03*
D17*
X439420Y646430D03*
X439420Y630430D03*
X398420Y630430D03*
X398420Y646430D03*
D18*
X409720Y664720D03*
X426720Y664720D03*
D19*
X663470Y670470D03*
X650770Y670470D03*
X638070Y670470D03*
X625370Y670470D03*
X612670Y670470D03*
X599970Y670470D03*
X587270Y670470D03*
X574570Y670470D03*
X561870Y670470D03*
X549170Y670470D03*
X536470Y670470D03*
X523770Y670470D03*
X511070Y670470D03*
X498370Y670470D03*
D20*
X488370Y642620D03*
X488370Y629920D03*
X488370Y617220D03*
X488370Y604520D03*
X488370Y591820D03*
X488370Y579120D03*
X488370Y566420D03*
X488370Y553720D03*
X488370Y541020D03*
X488370Y528320D03*
D19*
X498370Y500470D03*
X511070Y500470D03*
X523770Y500470D03*
X536470Y500470D03*
X549170Y500470D03*
X561870Y500470D03*
X574570Y500470D03*
X587270Y500470D03*
X599970Y500470D03*
X612670Y500470D03*
X625370Y500470D03*
X638070Y500470D03*
X650770Y500470D03*
X663470Y500470D03*
D21*
X606820Y613820D03*
X606820Y595470D03*
X606820Y577120D03*
X588470Y613820D03*
X588470Y595470D03*
X588470Y577120D03*
X570120Y613820D03*
X570120Y595470D03*
X570120Y577120D03*
D22*
X606820Y604645D03*
X606820Y586295D03*
X597645Y613820D03*
X597645Y595470D03*
X597645Y577120D03*
X588470Y604645D03*
X588470Y586295D03*
X579295Y613820D03*
X579295Y595470D03*
X579295Y577120D03*
X570120Y604645D03*
X570120Y586295D03*
D16*
X582550Y707390D03*
X598550Y707390D03*
D12*
X643890Y724790D03*
X643890Y740790D03*
D16*
X626490Y707390D03*
X610490Y707390D03*
D23*
X378460Y465720D03*
X378460Y451220D03*
D24*
X378460Y421030D03*
X378460Y440030D03*
D25*
X578510Y724060D03*
X597510Y724060D03*
X588010Y744060D03*
X611530Y722790D03*
X630530Y722790D03*
X621030Y742790D03*
D14*
X638460Y694690D03*
X651860Y694690D03*
X638460Y707390D03*
X651860Y707390D03*
D26*
X294010Y500830D03*
X287650Y500830D03*
X281310Y500830D03*
X274950Y500830D03*
X268610Y500830D03*
X262250Y500830D03*
X255910Y500830D03*
X249550Y500830D03*
X243210Y500830D03*
X236850Y500830D03*
X236850Y446590D03*
X243210Y446590D03*
X249550Y446590D03*
X255910Y446590D03*
X262250Y446590D03*
X268610Y446590D03*
X274950Y446590D03*
X281310Y446590D03*
X287650Y446590D03*
X294010Y446590D03*
D23*
X330200Y466990D03*
X330200Y452490D03*
X354330Y465720D03*
X354330Y451220D03*
D24*
X330200Y421030D03*
X330200Y440030D03*
X354330Y421030D03*
X354330Y440030D03*
D14*
X285400Y421640D03*
X298800Y421640D03*
X244190Y421640D03*
X230790Y421640D03*
X257460Y421640D03*
X270860Y421640D03*
D27*
X179900Y662540D03*
X179900Y637540D03*
X179900Y612540D03*
D28*
X152400Y671540D03*
X152400Y603540D03*
D29*
X332080Y738170D03*
X322580Y738170D03*
X313080Y738170D03*
X313080Y712170D03*
X332080Y712170D03*
X322580Y712170D03*
D30*
X246478Y700392D02*
X231862Y700392D01*
X231862Y703408D01*
X246478Y703408D01*
X246478Y700392D01*
X246478Y703257D02*
X231862Y703257D01*
X231862Y693892D02*
X246478Y693892D01*
X231862Y693892D02*
X231862Y696908D01*
X246478Y696908D01*
X246478Y693892D01*
X246478Y696757D02*
X231862Y696757D01*
X231862Y687392D02*
X246478Y687392D01*
X231862Y687392D02*
X231862Y690408D01*
X246478Y690408D01*
X246478Y687392D01*
X246478Y690257D02*
X231862Y690257D01*
X231862Y680892D02*
X246478Y680892D01*
X231862Y680892D02*
X231862Y683908D01*
X246478Y683908D01*
X246478Y680892D01*
X246478Y683757D02*
X231862Y683757D01*
X289462Y680892D02*
X304078Y680892D01*
X289462Y680892D02*
X289462Y683908D01*
X304078Y683908D01*
X304078Y680892D01*
X304078Y683757D02*
X289462Y683757D01*
X289462Y687392D02*
X304078Y687392D01*
X289462Y687392D02*
X289462Y690408D01*
X304078Y690408D01*
X304078Y687392D01*
X304078Y690257D02*
X289462Y690257D01*
X289462Y693892D02*
X304078Y693892D01*
X289462Y693892D02*
X289462Y696908D01*
X304078Y696908D01*
X304078Y693892D01*
X304078Y696757D02*
X289462Y696757D01*
X289462Y700392D02*
X304078Y700392D01*
X289462Y700392D02*
X289462Y703408D01*
X304078Y703408D01*
X304078Y700392D01*
X304078Y703257D02*
X289462Y703257D01*
D31*
X251049Y663231D02*
X232851Y663231D01*
X232851Y667729D01*
X251049Y667729D01*
X251049Y663231D01*
X251049Y666588D02*
X232851Y666588D01*
X232851Y650531D02*
X251049Y650531D01*
X232851Y650531D02*
X232851Y655029D01*
X251049Y655029D01*
X251049Y650531D01*
X251049Y653888D02*
X232851Y653888D01*
X232851Y637831D02*
X251049Y637831D01*
X232851Y637831D02*
X232851Y642329D01*
X251049Y642329D01*
X251049Y637831D01*
X251049Y641188D02*
X232851Y641188D01*
X232851Y625131D02*
X251049Y625131D01*
X232851Y625131D02*
X232851Y629629D01*
X251049Y629629D01*
X251049Y625131D01*
X251049Y628488D02*
X232851Y628488D01*
X282351Y625131D02*
X300549Y625131D01*
X282351Y625131D02*
X282351Y629629D01*
X300549Y629629D01*
X300549Y625131D01*
X300549Y628488D02*
X282351Y628488D01*
X282351Y637831D02*
X300549Y637831D01*
X282351Y637831D02*
X282351Y642329D01*
X300549Y642329D01*
X300549Y637831D01*
X300549Y641188D02*
X282351Y641188D01*
X282351Y650531D02*
X300549Y650531D01*
X282351Y650531D02*
X282351Y655029D01*
X300549Y655029D01*
X300549Y650531D01*
X300549Y653888D02*
X282351Y653888D01*
X282351Y663231D02*
X300549Y663231D01*
X282351Y663231D02*
X282351Y667729D01*
X300549Y667729D01*
X300549Y663231D01*
X300549Y666588D02*
X282351Y666588D01*
D32*
X266700Y646430D03*
D33*
X206250Y554710D03*
X206250Y549710D03*
X206250Y544710D03*
X206250Y519710D03*
X206250Y524710D03*
X206250Y529710D03*
X206250Y539710D03*
X206250Y534710D03*
D34*
X206250Y569210D03*
X206250Y505210D03*
X206250Y561210D03*
X206250Y513210D03*
D35*
X195550Y566110D03*
X195550Y508310D03*
D12*
X400050Y731140D03*
X400050Y747140D03*
D24*
X445770Y747370D03*
X445770Y728370D03*
X421640Y747370D03*
X421640Y728370D03*
D12*
X466090Y731140D03*
X466090Y747140D03*
X215900Y654430D03*
X215900Y638430D03*
D36*
X401320Y474000D03*
X401320Y440400D03*
D37*
X430022Y513588D03*
X448818Y513588D03*
D38*
X439420Y535432D03*
D11*
X490220Y465170D03*
X490220Y451770D03*
X501650Y465170D03*
X501650Y451770D03*
X414020Y528670D03*
X414020Y515270D03*
X463550Y528670D03*
X463550Y515270D03*
D16*
X350140Y712470D03*
X366140Y712470D03*
D14*
X351440Y725170D03*
X364840Y725170D03*
D16*
X367410Y740410D03*
X351410Y740410D03*
D14*
X355250Y697230D03*
X368650Y697230D03*
D39*
X246380Y722630D02*
X246380Y737870D01*
X271780Y737870D02*
X271780Y722630D01*
D40*
X420000Y695960D03*
X405500Y695960D03*
X420000Y707390D03*
X405500Y707390D03*
D41*
X342900Y508000D03*
X419100Y584200D03*
X342900Y660400D03*
X266700Y584200D03*
X181610Y447040D03*
X698500Y447040D03*
X181610Y721360D03*
X698500Y721360D03*
D42*
X524130Y473890D03*
X540130Y473890D03*
X540130Y432890D03*
X524130Y432890D03*
D16*
X504570Y435610D03*
X488570Y435610D03*
D42*
X557150Y473890D03*
X573150Y473890D03*
X573150Y432890D03*
X557150Y432890D03*
D16*
X504570Y424180D03*
X488570Y424180D03*
X455550Y668020D03*
X471550Y668020D03*
D12*
X464820Y621920D03*
X464820Y637920D03*
D16*
X338200Y551180D03*
X322200Y551180D03*
D43*
X598470Y457200D02*
X598470Y447040D01*
X610970Y447040D02*
X610970Y457200D01*
X623470Y457200D02*
X623470Y447040D01*
X635970Y447040D02*
X635970Y457200D01*
D44*
X418490Y426420D03*
X427990Y426420D03*
X437490Y426420D03*
X437490Y452420D03*
X418490Y452420D03*
D11*
X436880Y464470D03*
X436880Y477870D03*
D45*
X452120Y428380D03*
X452120Y445380D03*
D12*
X474980Y473330D03*
X474980Y489330D03*
D42*
X474980Y462660D03*
X474980Y446660D03*
M02*
