G04 EAGLE Gerber RS-274X export*
G75*
%MOMM*%
%FSLAX34Y34*%
%LPD*%
%INSolderpaste Bottom*%
%IPPOS*%
%AMOC8*
5,1,8,0,0,1.08239X$1,22.5*%
G01*
%ADD10R,0.500000X0.750000*%
%ADD11R,1.200000X1.800000*%
%ADD12R,1.200000X2.200000*%
%ADD13R,1.600000X1.500000*%
%ADD14R,0.950000X0.900000*%
%ADD15R,0.950000X0.800000*%
%ADD16R,0.940000X0.800000*%


D10*
X639450Y553430D03*
X628450Y553430D03*
X617450Y553430D03*
X606450Y553430D03*
X595450Y553430D03*
X584450Y553430D03*
X573450Y553430D03*
X562450Y553430D03*
X551450Y553430D03*
D11*
X651450Y543180D03*
D12*
X651450Y450180D03*
D13*
X508200Y545680D03*
D12*
X496450Y450180D03*
D14*
X476250Y582550D03*
X476250Y598550D03*
X499110Y582550D03*
X499110Y598550D03*
X510540Y582550D03*
X510540Y598550D03*
X544830Y582550D03*
X544830Y598550D03*
X635000Y585090D03*
X635000Y601090D03*
X657860Y585090D03*
X657860Y601090D03*
D15*
X669290Y585090D03*
X669290Y601090D03*
X646430Y585090D03*
X646430Y601090D03*
X556260Y582550D03*
X556260Y598550D03*
X533400Y582550D03*
X533400Y598550D03*
X521970Y582550D03*
X521970Y598550D03*
X487680Y582550D03*
X487680Y598550D03*
X482600Y565530D03*
X482600Y549530D03*
D16*
X623570Y586390D03*
X623570Y599790D03*
M02*
