G04 EAGLE Gerber RS-274X export*
G75*
%MOMM*%
%FSLAX34Y34*%
%LPD*%
%INSolderpaste Top*%
%IPPOS*%
%AMOC8*
5,1,8,0,0,1.08239X$1,22.5*%
G01*
%ADD10C,0.060000*%
%ADD11R,0.940000X0.800000*%
%ADD12R,0.950000X0.900000*%
%ADD13R,1.100000X1.900000*%
%ADD14R,0.800000X0.940000*%
%ADD15R,0.500000X0.350000*%
%ADD16R,0.900000X0.950000*%
%ADD17R,0.900000X1.000000*%
%ADD18R,1.100000X1.000000*%
%ADD19R,0.900000X2.000000*%
%ADD20R,2.000000X0.900000*%
%ADD21R,1.330000X1.330000*%
%ADD22R,0.900000X0.650000*%
%ADD23R,1.400000X0.900000*%
%ADD24R,0.800000X0.900000*%
%ADD25R,0.435000X1.526000*%
%ADD26R,2.500000X1.200000*%
%ADD27R,0.550000X1.200000*%
%ADD28C,0.100000*%
%ADD29R,1.290000X1.640000*%
%ADD30C,0.150000*%
%ADD31R,1.140000X0.600000*%
%ADD32R,1.140000X0.300000*%
%ADD33R,0.730000X1.210000*%
%ADD34R,0.558800X1.320800*%
%ADD35R,0.508000X1.320800*%
%ADD36R,0.650000X0.900000*%
%ADD37R,1.000000X0.900000*%
%ADD38R,0.550000X1.050000*%
%ADD39R,1.450000X1.200000*%


D10*
X366600Y597600D02*
X364200Y597600D01*
X364200Y602000D01*
X366600Y602000D01*
X366600Y597600D01*
X366600Y598170D02*
X364200Y598170D01*
X364200Y598740D02*
X366600Y598740D01*
X366600Y599310D02*
X364200Y599310D01*
X364200Y599880D02*
X366600Y599880D01*
X366600Y600450D02*
X364200Y600450D01*
X364200Y601020D02*
X366600Y601020D01*
X366600Y601590D02*
X364200Y601590D01*
X367600Y592900D02*
X367600Y590500D01*
X363200Y590500D01*
X363200Y592900D01*
X367600Y592900D01*
X367600Y591070D02*
X363200Y591070D01*
X363200Y591640D02*
X367600Y591640D01*
X367600Y592210D02*
X363200Y592210D01*
X363200Y592780D02*
X367600Y592780D01*
X367600Y587900D02*
X367600Y585500D01*
X363200Y585500D01*
X363200Y587900D01*
X367600Y587900D01*
X367600Y586070D02*
X363200Y586070D01*
X363200Y586640D02*
X367600Y586640D01*
X367600Y587210D02*
X363200Y587210D01*
X363200Y587780D02*
X367600Y587780D01*
X367600Y582900D02*
X367600Y580500D01*
X363200Y580500D01*
X363200Y582900D01*
X367600Y582900D01*
X367600Y581070D02*
X363200Y581070D01*
X363200Y581640D02*
X367600Y581640D01*
X367600Y582210D02*
X363200Y582210D01*
X363200Y582780D02*
X367600Y582780D01*
X367600Y577900D02*
X367600Y575500D01*
X363200Y575500D01*
X363200Y577900D01*
X367600Y577900D01*
X367600Y576070D02*
X363200Y576070D01*
X363200Y576640D02*
X367600Y576640D01*
X367600Y577210D02*
X363200Y577210D01*
X363200Y577780D02*
X367600Y577780D01*
X366600Y566400D02*
X364200Y566400D01*
X364200Y570800D01*
X366600Y570800D01*
X366600Y566400D01*
X366600Y566970D02*
X364200Y566970D01*
X364200Y567540D02*
X366600Y567540D01*
X366600Y568110D02*
X364200Y568110D01*
X364200Y568680D02*
X366600Y568680D01*
X366600Y569250D02*
X364200Y569250D01*
X364200Y569820D02*
X366600Y569820D01*
X366600Y570390D02*
X364200Y570390D01*
X361600Y566400D02*
X359200Y566400D01*
X359200Y570800D01*
X361600Y570800D01*
X361600Y566400D01*
X361600Y566970D02*
X359200Y566970D01*
X359200Y567540D02*
X361600Y567540D01*
X361600Y568110D02*
X359200Y568110D01*
X359200Y568680D02*
X361600Y568680D01*
X361600Y569250D02*
X359200Y569250D01*
X359200Y569820D02*
X361600Y569820D01*
X361600Y570390D02*
X359200Y570390D01*
X356600Y566400D02*
X354200Y566400D01*
X354200Y570800D01*
X356600Y570800D01*
X356600Y566400D01*
X356600Y566970D02*
X354200Y566970D01*
X354200Y567540D02*
X356600Y567540D01*
X356600Y568110D02*
X354200Y568110D01*
X354200Y568680D02*
X356600Y568680D01*
X356600Y569250D02*
X354200Y569250D01*
X354200Y569820D02*
X356600Y569820D01*
X356600Y570390D02*
X354200Y570390D01*
X351600Y566400D02*
X349200Y566400D01*
X349200Y570800D01*
X351600Y570800D01*
X351600Y566400D01*
X351600Y566970D02*
X349200Y566970D01*
X349200Y567540D02*
X351600Y567540D01*
X351600Y568110D02*
X349200Y568110D01*
X349200Y568680D02*
X351600Y568680D01*
X351600Y569250D02*
X349200Y569250D01*
X349200Y569820D02*
X351600Y569820D01*
X351600Y570390D02*
X349200Y570390D01*
X346600Y566400D02*
X344200Y566400D01*
X344200Y570800D01*
X346600Y570800D01*
X346600Y566400D01*
X346600Y566970D02*
X344200Y566970D01*
X344200Y567540D02*
X346600Y567540D01*
X346600Y568110D02*
X344200Y568110D01*
X344200Y568680D02*
X346600Y568680D01*
X346600Y569250D02*
X344200Y569250D01*
X344200Y569820D02*
X346600Y569820D01*
X346600Y570390D02*
X344200Y570390D01*
X341600Y566400D02*
X339200Y566400D01*
X339200Y570800D01*
X341600Y570800D01*
X341600Y566400D01*
X341600Y566970D02*
X339200Y566970D01*
X339200Y567540D02*
X341600Y567540D01*
X341600Y568110D02*
X339200Y568110D01*
X339200Y568680D02*
X341600Y568680D01*
X341600Y569250D02*
X339200Y569250D01*
X339200Y569820D02*
X341600Y569820D01*
X341600Y570390D02*
X339200Y570390D01*
X336600Y566400D02*
X334200Y566400D01*
X334200Y570800D01*
X336600Y570800D01*
X336600Y566400D01*
X336600Y566970D02*
X334200Y566970D01*
X334200Y567540D02*
X336600Y567540D01*
X336600Y568110D02*
X334200Y568110D01*
X334200Y568680D02*
X336600Y568680D01*
X336600Y569250D02*
X334200Y569250D01*
X334200Y569820D02*
X336600Y569820D01*
X336600Y570390D02*
X334200Y570390D01*
X331600Y566400D02*
X329200Y566400D01*
X329200Y570800D01*
X331600Y570800D01*
X331600Y566400D01*
X331600Y566970D02*
X329200Y566970D01*
X329200Y567540D02*
X331600Y567540D01*
X331600Y568110D02*
X329200Y568110D01*
X329200Y568680D02*
X331600Y568680D01*
X331600Y569250D02*
X329200Y569250D01*
X329200Y569820D02*
X331600Y569820D01*
X331600Y570390D02*
X329200Y570390D01*
X326600Y566400D02*
X324200Y566400D01*
X324200Y570800D01*
X326600Y570800D01*
X326600Y566400D01*
X326600Y566970D02*
X324200Y566970D01*
X324200Y567540D02*
X326600Y567540D01*
X326600Y568110D02*
X324200Y568110D01*
X324200Y568680D02*
X326600Y568680D01*
X326600Y569250D02*
X324200Y569250D01*
X324200Y569820D02*
X326600Y569820D01*
X326600Y570390D02*
X324200Y570390D01*
X321600Y566400D02*
X319200Y566400D01*
X319200Y570800D01*
X321600Y570800D01*
X321600Y566400D01*
X321600Y566970D02*
X319200Y566970D01*
X319200Y567540D02*
X321600Y567540D01*
X321600Y568110D02*
X319200Y568110D01*
X319200Y568680D02*
X321600Y568680D01*
X321600Y569250D02*
X319200Y569250D01*
X319200Y569820D02*
X321600Y569820D01*
X321600Y570390D02*
X319200Y570390D01*
X322600Y575500D02*
X322600Y577900D01*
X322600Y575500D02*
X318200Y575500D01*
X318200Y577900D01*
X322600Y577900D01*
X322600Y576070D02*
X318200Y576070D01*
X318200Y576640D02*
X322600Y576640D01*
X322600Y577210D02*
X318200Y577210D01*
X318200Y577780D02*
X322600Y577780D01*
X322600Y580500D02*
X322600Y582900D01*
X322600Y580500D02*
X318200Y580500D01*
X318200Y582900D01*
X322600Y582900D01*
X322600Y581070D02*
X318200Y581070D01*
X318200Y581640D02*
X322600Y581640D01*
X322600Y582210D02*
X318200Y582210D01*
X318200Y582780D02*
X322600Y582780D01*
X322600Y585500D02*
X322600Y587900D01*
X322600Y585500D02*
X318200Y585500D01*
X318200Y587900D01*
X322600Y587900D01*
X322600Y586070D02*
X318200Y586070D01*
X318200Y586640D02*
X322600Y586640D01*
X322600Y587210D02*
X318200Y587210D01*
X318200Y587780D02*
X322600Y587780D01*
X322600Y590500D02*
X322600Y592900D01*
X322600Y590500D02*
X318200Y590500D01*
X318200Y592900D01*
X322600Y592900D01*
X322600Y591070D02*
X318200Y591070D01*
X318200Y591640D02*
X322600Y591640D01*
X322600Y592210D02*
X318200Y592210D01*
X318200Y592780D02*
X322600Y592780D01*
X321600Y597600D02*
X319200Y597600D01*
X319200Y602000D01*
X321600Y602000D01*
X321600Y597600D01*
X321600Y598170D02*
X319200Y598170D01*
X319200Y598740D02*
X321600Y598740D01*
X321600Y599310D02*
X319200Y599310D01*
X319200Y599880D02*
X321600Y599880D01*
X321600Y600450D02*
X319200Y600450D01*
X319200Y601020D02*
X321600Y601020D01*
X321600Y601590D02*
X319200Y601590D01*
X324200Y597600D02*
X326600Y597600D01*
X324200Y597600D02*
X324200Y602000D01*
X326600Y602000D01*
X326600Y597600D01*
X326600Y598170D02*
X324200Y598170D01*
X324200Y598740D02*
X326600Y598740D01*
X326600Y599310D02*
X324200Y599310D01*
X324200Y599880D02*
X326600Y599880D01*
X326600Y600450D02*
X324200Y600450D01*
X324200Y601020D02*
X326600Y601020D01*
X326600Y601590D02*
X324200Y601590D01*
X329200Y597600D02*
X331600Y597600D01*
X329200Y597600D02*
X329200Y602000D01*
X331600Y602000D01*
X331600Y597600D01*
X331600Y598170D02*
X329200Y598170D01*
X329200Y598740D02*
X331600Y598740D01*
X331600Y599310D02*
X329200Y599310D01*
X329200Y599880D02*
X331600Y599880D01*
X331600Y600450D02*
X329200Y600450D01*
X329200Y601020D02*
X331600Y601020D01*
X331600Y601590D02*
X329200Y601590D01*
X334200Y597600D02*
X336600Y597600D01*
X334200Y597600D02*
X334200Y602000D01*
X336600Y602000D01*
X336600Y597600D01*
X336600Y598170D02*
X334200Y598170D01*
X334200Y598740D02*
X336600Y598740D01*
X336600Y599310D02*
X334200Y599310D01*
X334200Y599880D02*
X336600Y599880D01*
X336600Y600450D02*
X334200Y600450D01*
X334200Y601020D02*
X336600Y601020D01*
X336600Y601590D02*
X334200Y601590D01*
X339200Y597600D02*
X341600Y597600D01*
X339200Y597600D02*
X339200Y602000D01*
X341600Y602000D01*
X341600Y597600D01*
X341600Y598170D02*
X339200Y598170D01*
X339200Y598740D02*
X341600Y598740D01*
X341600Y599310D02*
X339200Y599310D01*
X339200Y599880D02*
X341600Y599880D01*
X341600Y600450D02*
X339200Y600450D01*
X339200Y601020D02*
X341600Y601020D01*
X341600Y601590D02*
X339200Y601590D01*
X344200Y597600D02*
X346600Y597600D01*
X344200Y597600D02*
X344200Y602000D01*
X346600Y602000D01*
X346600Y597600D01*
X346600Y598170D02*
X344200Y598170D01*
X344200Y598740D02*
X346600Y598740D01*
X346600Y599310D02*
X344200Y599310D01*
X344200Y599880D02*
X346600Y599880D01*
X346600Y600450D02*
X344200Y600450D01*
X344200Y601020D02*
X346600Y601020D01*
X346600Y601590D02*
X344200Y601590D01*
X349200Y597600D02*
X351600Y597600D01*
X349200Y597600D02*
X349200Y602000D01*
X351600Y602000D01*
X351600Y597600D01*
X351600Y598170D02*
X349200Y598170D01*
X349200Y598740D02*
X351600Y598740D01*
X351600Y599310D02*
X349200Y599310D01*
X349200Y599880D02*
X351600Y599880D01*
X351600Y600450D02*
X349200Y600450D01*
X349200Y601020D02*
X351600Y601020D01*
X351600Y601590D02*
X349200Y601590D01*
X354200Y597600D02*
X356600Y597600D01*
X354200Y597600D02*
X354200Y602000D01*
X356600Y602000D01*
X356600Y597600D01*
X356600Y598170D02*
X354200Y598170D01*
X354200Y598740D02*
X356600Y598740D01*
X356600Y599310D02*
X354200Y599310D01*
X354200Y599880D02*
X356600Y599880D01*
X356600Y600450D02*
X354200Y600450D01*
X354200Y601020D02*
X356600Y601020D01*
X356600Y601590D02*
X354200Y601590D01*
X359200Y597600D02*
X361600Y597600D01*
X359200Y597600D02*
X359200Y602000D01*
X361600Y602000D01*
X361600Y597600D01*
X361600Y598170D02*
X359200Y598170D01*
X359200Y598740D02*
X361600Y598740D01*
X361600Y599310D02*
X359200Y599310D01*
X359200Y599880D02*
X361600Y599880D01*
X361600Y600450D02*
X359200Y600450D01*
X359200Y601020D02*
X361600Y601020D01*
X361600Y601590D02*
X359200Y601590D01*
D11*
X281940Y527970D03*
X281940Y541370D03*
X387350Y529940D03*
X387350Y516540D03*
D12*
X293370Y526670D03*
X293370Y542670D03*
X306070Y526670D03*
X306070Y542670D03*
X400050Y529970D03*
X400050Y513970D03*
D13*
X260150Y537210D03*
X235150Y537210D03*
D14*
X256190Y519430D03*
X269590Y519430D03*
X245460Y519430D03*
X232060Y519430D03*
D15*
X527430Y733650D03*
X527430Y727150D03*
X527430Y720650D03*
X527430Y714150D03*
X511430Y714150D03*
X511430Y720650D03*
X511430Y727150D03*
X511430Y733650D03*
D12*
X562610Y734440D03*
X562610Y718440D03*
D16*
X455550Y683260D03*
X471550Y683260D03*
D14*
X458120Y712470D03*
X471520Y712470D03*
X458120Y698500D03*
X471520Y698500D03*
D17*
X439420Y646430D03*
X439420Y630430D03*
X398420Y630430D03*
X398420Y646430D03*
D18*
X409720Y664720D03*
X426720Y664720D03*
D19*
X663470Y670470D03*
X650770Y670470D03*
X638070Y670470D03*
X625370Y670470D03*
X612670Y670470D03*
X599970Y670470D03*
X587270Y670470D03*
X574570Y670470D03*
X561870Y670470D03*
X549170Y670470D03*
X536470Y670470D03*
X523770Y670470D03*
X511070Y670470D03*
X498370Y670470D03*
D20*
X488370Y642620D03*
X488370Y629920D03*
X488370Y617220D03*
X488370Y604520D03*
X488370Y591820D03*
X488370Y579120D03*
X488370Y566420D03*
X488370Y553720D03*
X488370Y541020D03*
X488370Y528320D03*
D19*
X498370Y500470D03*
X511070Y500470D03*
X523770Y500470D03*
X536470Y500470D03*
X549170Y500470D03*
X561870Y500470D03*
X574570Y500470D03*
X587270Y500470D03*
X599970Y500470D03*
X612670Y500470D03*
X625370Y500470D03*
X638070Y500470D03*
X650770Y500470D03*
X663470Y500470D03*
D21*
X606820Y613820D03*
X606820Y595470D03*
X606820Y577120D03*
X588470Y613820D03*
X588470Y595470D03*
X588470Y577120D03*
X570120Y613820D03*
X570120Y595470D03*
X570120Y577120D03*
D16*
X582550Y707390D03*
X598550Y707390D03*
D12*
X643890Y724790D03*
X643890Y740790D03*
D16*
X626490Y707390D03*
X610490Y707390D03*
D22*
X378460Y465720D03*
X378460Y451220D03*
D23*
X378460Y421030D03*
X378460Y440030D03*
D24*
X578510Y724060D03*
X597510Y724060D03*
X588010Y744060D03*
X611530Y722790D03*
X630530Y722790D03*
X621030Y742790D03*
D14*
X638460Y694690D03*
X651860Y694690D03*
X638460Y707390D03*
X651860Y707390D03*
D25*
X294010Y500830D03*
X287650Y500830D03*
X281310Y500830D03*
X274950Y500830D03*
X268610Y500830D03*
X262250Y500830D03*
X255910Y500830D03*
X249550Y500830D03*
X243210Y500830D03*
X236850Y500830D03*
X236850Y446590D03*
X243210Y446590D03*
X249550Y446590D03*
X255910Y446590D03*
X262250Y446590D03*
X268610Y446590D03*
X274950Y446590D03*
X281310Y446590D03*
X287650Y446590D03*
X294010Y446590D03*
D22*
X330200Y466990D03*
X330200Y452490D03*
X354330Y465720D03*
X354330Y451220D03*
D23*
X330200Y421030D03*
X330200Y440030D03*
X354330Y421030D03*
X354330Y440030D03*
D14*
X285400Y421640D03*
X298800Y421640D03*
X244190Y421640D03*
X230790Y421640D03*
X257460Y421640D03*
X270860Y421640D03*
D26*
X179900Y662540D03*
X179900Y637540D03*
X179900Y612540D03*
D27*
X332080Y738170D03*
X322580Y738170D03*
X313080Y738170D03*
X313080Y712170D03*
X332080Y712170D03*
X322580Y712170D03*
D28*
X246470Y700400D02*
X231870Y700400D01*
X231870Y703400D01*
X246470Y703400D01*
X246470Y700400D01*
X246470Y701350D02*
X231870Y701350D01*
X231870Y702300D02*
X246470Y702300D01*
X246470Y703250D02*
X231870Y703250D01*
X231870Y693900D02*
X246470Y693900D01*
X231870Y693900D02*
X231870Y696900D01*
X246470Y696900D01*
X246470Y693900D01*
X246470Y694850D02*
X231870Y694850D01*
X231870Y695800D02*
X246470Y695800D01*
X246470Y696750D02*
X231870Y696750D01*
X231870Y687400D02*
X246470Y687400D01*
X231870Y687400D02*
X231870Y690400D01*
X246470Y690400D01*
X246470Y687400D01*
X246470Y688350D02*
X231870Y688350D01*
X231870Y689300D02*
X246470Y689300D01*
X246470Y690250D02*
X231870Y690250D01*
X231870Y680900D02*
X246470Y680900D01*
X231870Y680900D02*
X231870Y683900D01*
X246470Y683900D01*
X246470Y680900D01*
X246470Y681850D02*
X231870Y681850D01*
X231870Y682800D02*
X246470Y682800D01*
X246470Y683750D02*
X231870Y683750D01*
X289470Y680900D02*
X304070Y680900D01*
X289470Y680900D02*
X289470Y683900D01*
X304070Y683900D01*
X304070Y680900D01*
X304070Y681850D02*
X289470Y681850D01*
X289470Y682800D02*
X304070Y682800D01*
X304070Y683750D02*
X289470Y683750D01*
X289470Y687400D02*
X304070Y687400D01*
X289470Y687400D02*
X289470Y690400D01*
X304070Y690400D01*
X304070Y687400D01*
X304070Y688350D02*
X289470Y688350D01*
X289470Y689300D02*
X304070Y689300D01*
X304070Y690250D02*
X289470Y690250D01*
X289470Y693900D02*
X304070Y693900D01*
X289470Y693900D02*
X289470Y696900D01*
X304070Y696900D01*
X304070Y693900D01*
X304070Y694850D02*
X289470Y694850D01*
X289470Y695800D02*
X304070Y695800D01*
X304070Y696750D02*
X289470Y696750D01*
X289470Y700400D02*
X304070Y700400D01*
X289470Y700400D02*
X289470Y703400D01*
X304070Y703400D01*
X304070Y700400D01*
X304070Y701350D02*
X289470Y701350D01*
X289470Y702300D02*
X304070Y702300D01*
X304070Y703250D02*
X289470Y703250D01*
D29*
X266700Y646430D03*
D30*
X251050Y663230D02*
X232850Y663230D01*
X232850Y667730D01*
X251050Y667730D01*
X251050Y663230D01*
X251050Y664655D02*
X232850Y664655D01*
X232850Y666080D02*
X251050Y666080D01*
X251050Y667505D02*
X232850Y667505D01*
X232850Y650530D02*
X251050Y650530D01*
X232850Y650530D02*
X232850Y655030D01*
X251050Y655030D01*
X251050Y650530D01*
X251050Y651955D02*
X232850Y651955D01*
X232850Y653380D02*
X251050Y653380D01*
X251050Y654805D02*
X232850Y654805D01*
X232850Y637830D02*
X251050Y637830D01*
X232850Y637830D02*
X232850Y642330D01*
X251050Y642330D01*
X251050Y637830D01*
X251050Y639255D02*
X232850Y639255D01*
X232850Y640680D02*
X251050Y640680D01*
X251050Y642105D02*
X232850Y642105D01*
X232850Y625130D02*
X251050Y625130D01*
X232850Y625130D02*
X232850Y629630D01*
X251050Y629630D01*
X251050Y625130D01*
X251050Y626555D02*
X232850Y626555D01*
X232850Y627980D02*
X251050Y627980D01*
X251050Y629405D02*
X232850Y629405D01*
X282350Y625130D02*
X300550Y625130D01*
X282350Y625130D02*
X282350Y629630D01*
X300550Y629630D01*
X300550Y625130D01*
X300550Y626555D02*
X282350Y626555D01*
X282350Y627980D02*
X300550Y627980D01*
X300550Y629405D02*
X282350Y629405D01*
X282350Y637830D02*
X300550Y637830D01*
X282350Y637830D02*
X282350Y642330D01*
X300550Y642330D01*
X300550Y637830D01*
X300550Y639255D02*
X282350Y639255D01*
X282350Y640680D02*
X300550Y640680D01*
X300550Y642105D02*
X282350Y642105D01*
X282350Y650530D02*
X300550Y650530D01*
X282350Y650530D02*
X282350Y655030D01*
X300550Y655030D01*
X300550Y650530D01*
X300550Y651955D02*
X282350Y651955D01*
X282350Y653380D02*
X300550Y653380D01*
X300550Y654805D02*
X282350Y654805D01*
X282350Y663230D02*
X300550Y663230D01*
X282350Y663230D02*
X282350Y667730D01*
X300550Y667730D01*
X300550Y663230D01*
X300550Y664655D02*
X282350Y664655D01*
X282350Y666080D02*
X300550Y666080D01*
X300550Y667505D02*
X282350Y667505D01*
D31*
X206250Y569210D03*
X206250Y561210D03*
D32*
X206250Y539710D03*
X206250Y544710D03*
X206250Y549710D03*
X206250Y554710D03*
X206250Y534710D03*
X206250Y529710D03*
X206250Y524710D03*
X206250Y519710D03*
D31*
X206250Y513210D03*
X206250Y505210D03*
D12*
X400050Y731140D03*
X400050Y747140D03*
D23*
X445770Y747370D03*
X445770Y728370D03*
X421640Y747370D03*
X421640Y728370D03*
D12*
X466090Y731140D03*
X466090Y747140D03*
X215900Y654430D03*
X215900Y638430D03*
D33*
X401320Y474000D03*
X401320Y440400D03*
D34*
X430022Y513588D03*
X448818Y513588D03*
D35*
X439420Y535432D03*
D11*
X490220Y465170D03*
X490220Y451770D03*
X501650Y465170D03*
X501650Y451770D03*
X414020Y528670D03*
X414020Y515270D03*
X463550Y528670D03*
X463550Y515270D03*
D16*
X350140Y712470D03*
X366140Y712470D03*
D14*
X351440Y725170D03*
X364840Y725170D03*
D16*
X367410Y740410D03*
X351410Y740410D03*
D14*
X355250Y697230D03*
X368650Y697230D03*
D36*
X420000Y695960D03*
X405500Y695960D03*
X420000Y707390D03*
X405500Y707390D03*
D37*
X524130Y473890D03*
X540130Y473890D03*
X540130Y432890D03*
X524130Y432890D03*
D16*
X504570Y435610D03*
X488570Y435610D03*
D37*
X557150Y473890D03*
X573150Y473890D03*
X573150Y432890D03*
X557150Y432890D03*
D16*
X504570Y424180D03*
X488570Y424180D03*
X455550Y668020D03*
X471550Y668020D03*
D12*
X464820Y621920D03*
X464820Y637920D03*
D16*
X338200Y551180D03*
X322200Y551180D03*
D38*
X418490Y426420D03*
X427990Y426420D03*
X437490Y426420D03*
X437490Y452420D03*
X418490Y452420D03*
D11*
X436880Y464470D03*
X436880Y477870D03*
D39*
X452120Y428380D03*
X452120Y445380D03*
D12*
X474980Y473330D03*
X474980Y489330D03*
D37*
X474980Y462660D03*
X474980Y446660D03*
M02*
