M48
;GenerationSoftware,Autodesk,EAGLE,9.6.2*%
;CreationDate,2024-05-31T09:47:17Z*%
FMAT,2
ICI,OFF
METRIC,TZ,000.000
T8C0.200
T7C0.350
T6C0.500
T5C0.508
T4C0.600
T3C1.000
T2C1.016
T1C3.200
%
G90
M71
T1
X41910Y58420
X34290Y50800
X26670Y58420
X34290Y66040
X18161Y44704
X69850Y44704
X18161Y72136
X69850Y72136
T2
X24638Y73025
X27178Y73025
T3
X15240Y67154
X15240Y60354
T4
X19555Y56611
X19555Y50831
X20045Y58046
X20045Y49396
X15875Y58046
X15875Y49396
T5
X63597Y45212
X59847Y45212
X61097Y45212
X62347Y45212
T6
X32702Y49212
X40323Y56832
X41910Y60642
X41910Y56197
X44132Y58420
X39688Y58420
X40323Y60007
X43498Y60007
X43498Y56832
X34290Y68263
X34290Y63817
X36513Y66040
X32067Y66040
X32702Y67628
X35878Y67628
X35878Y64452
X32702Y64452
X26670Y60642
X26670Y56197
X28892Y58420
X24447Y58420
X25082Y60007
X28257Y60007
X28257Y56832
X25082Y56832
X34290Y53022
X18161Y46926
X18161Y42482
X20384Y44704
X15938Y44704
X16574Y46291
X19749Y46291
X19749Y43117
X16574Y43117
X34290Y48577
X69850Y42482
X72073Y44704
X67628Y44704
X68263Y46291
X71438Y46291
X71438Y43117
X68263Y43117
X36513Y50800
X18161Y74359
X18161Y69914
X20384Y72136
X15938Y72136
X16574Y73724
X19749Y73724
X19749Y70549
X16574Y70549
X32067Y50800
X69850Y74359
X69850Y69914
X72073Y72136
X67628Y72136
X68263Y73724
X71438Y73724
X71438Y70549
X68263Y70549
X32702Y52387
X35878Y52387
X35878Y49212
X69850Y46926
T7
X51300Y63873
X30076Y44704
X60833Y51943
X27178Y47117
X28540Y42164
X31392Y43307
X30076Y43307
X26249Y46228
X24933Y46228
X46228Y61087
X44831Y65659
X34925Y58166
X65151Y64897
X44958Y48110
X38628Y70739
X38628Y68707
X37719Y68707
X37719Y70739
X37846Y73660
X37973Y61849
X42799Y53721
X29591Y71859
X30353Y73660
X44577Y69469
X51435Y70104
X54785Y70104
X59563Y64770
X47498Y50165
X38570Y62865
X41712Y47300
X21615Y60960
X45593Y47371
X36640Y44697
X37084Y53340
X63881Y65278
X66040Y73914
X50527Y68557
X50800Y52832
X66271Y56642
X65128Y61595
X52832Y52174
X66929Y57277
X66929Y61341
X51435Y60960
X47306Y61214
X48222Y66317
X45466Y55372
X46990Y54864
X41021Y42926
X46355Y45720
X40259Y49761
X44831Y49761
X39370Y47244
X17990Y66254
X21463Y42545
X24384Y42164
X27178Y42164
X29972Y42164
X16637Y53721
X19939Y60325
X26162Y68580
X18669Y65024
X21209Y74803
X30099Y70993
X34036Y73787
X38735Y74549
X41656Y64643
X35814Y60833
X44831Y53340
X47117Y56515
X66167Y47625
X60198Y42545
X56642Y45339
X52705Y45466
X50927Y47625
X42672Y45212
X37211Y48006
X34290Y44831
X24892Y47498
X22987Y46990
X22860Y49149
X32512Y53975
X35306Y55626
X39243Y55880
X38735Y60452
X37211Y60325
X19939Y61722
X34544Y70231
X48514Y73406
X48768Y67056
X63754Y63500
X66548Y69342
X62357Y69469
X42037Y62865
X16256Y52070
X48768Y64262
X64897Y56388
X63373Y54229
X53467Y53594
X54737Y60960
X55753Y63881
X61214Y63500
X66929Y63754
X47117Y71247
X47625Y43307
X43815Y43942
X18796Y68199
X21082Y68580
X27178Y53594
X33401Y59055
X44574Y68560
X44196Y67183
X35433Y59182
X30881Y60813
X24765Y54356
X23749Y55372
X33274Y61547
X53086Y64897
X53721Y72009
X54379Y71120
X54102Y64897
X52070Y64389
X48514Y71374
X50165Y71374
X21844Y44196
X18161Y51308
X22606Y60579
X22606Y62484
X20978Y66802
X39243Y45466
X42926Y70945
X38862Y72898
X32703Y69446
X30099Y48768
X61214Y73279
X30076Y50038
X57785Y74041
X62484Y51816
X39116Y50419
X53594Y73533
T8
X57012Y60464
X57012Y58629
X60682Y60464
X60682Y58629
X59764Y61382
X59764Y59547
X59764Y57712
X58847Y60464
X58847Y58629
X57929Y61382
X57929Y59547
X57929Y57712
M30